# xmcd CD database file
#
# Track frame offsets:
#	150
#	12661
#	31704
#	44859
#	60370
#	79609
#	98135
#	121478
#	134580
#	153558
#	173637
#	187681
#	217018
#	239460
#
# Disc length: 3423 seconds
#
# Revision: 1
# Processed by: cddbd v1.4PL0 Copyright (c) Steve Scherf et al.
# Submitted via: CDex 1.50
#
DISCID=bb0d5d0e
DTITLE=Katie Kern - Still Young
DYEAR=2003
DGENRE=Blues
TTITLE0=Bad Feeling
TTITLE1=Still Young
TTITLE2=Last Waltz
TTITLE3=Restless
TTITLE4=Rainy Day Blues
TTITLE5=Route 66
TTITLE6=Til I Can Gain Control Again
TTITLE7=Hey Porter
TTITLE8=Prosecutor
TTITLE9=The Man I Love
TTITLE10=Jammin' With Jimmy
TTITLE11=Goin' Where The Moonon Crosses The Yellow Dog
TTITLE12=Cherokee
TTITLE13=He's Fine
EXTD=YEAR: 2003
EXTT0=
EXTT1=
EXTT2=
EXTT3=
EXTT4=
EXTT5=
EXTT6=
EXTT7=
EXTT8=
EXTT9=
EXTT10=
EXTT11=
EXTT12=
EXTT13=
PLAYORDER=
